<svg width="1440" height="750" viewBox="0 0 1440 750" fill="none" xmlns="http://www.w3.org/2000/svg">
<rect width="1440" height="750" fill="#FF7235"/>
<g opacity="0.8">
<mask id="mask0_26_377" style="mask-type:alpha" maskUnits="userSpaceOnUse" x="0" y="0" width="1440" height="750">
<rect width="1440" height="750" fill="#FF7235"/>
</mask>
<g mask="url(#mask0_26_377)">
<path fill-rule="evenodd" clip-rule="evenodd" d="M105.764 297.521C187.452 289.324 277.74 282.587 339.41 336.781C403.437 393.047 419.065 485.235 416.316 570.428C413.663 652.645 385.235 733.657 324.803 789.467C266.435 843.371 185.087 861.729 105.764 857.227C31.1136 852.99 -33.0378 814.669 -89.7467 765.938C-152.678 711.86 -228.953 653.396 -227.991 570.428C-227.033 487.802 -149.235 431.704 -85.2662 379.398C-29.5122 333.809 34.1034 304.712 105.764 297.521Z" fill="url(#paint0_linear_26_377)"/>
<path fill-rule="evenodd" clip-rule="evenodd" d="M1322.2 475.603C1232.25 470.342 1150.62 422.532 1092.57 353.627C1039.19 290.266 1029.16 206.788 1025.97 123.999C1022.6 36.5112 1016.81 -57.8751 1074.17 -124.021C1134.36 -193.421 1231.18 -230.034 1322.2 -217.602C1405.57 -206.215 1456.39 -128.759 1510.6 -64.4098C1558.17 -7.95757 1598.63 51.0642 1610.02 123.999C1623.92 212.967 1637.39 312.48 1580.35 382.157C1520.09 455.774 1417.17 481.158 1322.2 475.603Z" fill="url(#paint1_linear_26_377)"/>
</g>
</g>
<path d="M1338.87 329.732C1343.04 329.732 1347.04 331.389 1349.99 334.338C1352.94 337.287 1354.59 341.286 1354.59 345.457V494.59C1354.59 498.76 1352.94 502.76 1349.99 505.709C1347.04 508.658 1343.04 510.314 1338.87 510.314H1145.38C1141.21 510.314 1137.21 508.658 1134.26 505.709C1131.31 502.76 1129.66 498.76 1129.66 494.59V345.457C1129.66 341.286 1131.31 337.287 1134.26 334.338C1137.21 331.389 1141.21 329.732 1145.38 329.732H1338.87ZM1338.87 328.324H1145.38C1140.84 328.329 1136.48 330.135 1133.27 333.347C1130.06 336.559 1128.25 340.914 1128.25 345.457V494.59C1128.25 499.132 1130.06 503.487 1133.27 506.699C1136.48 509.911 1140.84 511.718 1145.38 511.722H1338.87C1343.41 511.718 1347.76 509.911 1350.98 506.699C1354.19 503.487 1356 499.132 1356 494.59V345.457C1356 340.914 1354.19 336.559 1350.98 333.347C1347.76 330.135 1343.41 328.329 1338.87 328.324Z" fill="white"/>
<path d="M1338.87 329.732H1145.38C1136.7 329.732 1129.66 336.772 1129.66 345.456V494.59C1129.66 503.274 1136.7 510.314 1145.38 510.314H1338.87C1347.55 510.314 1354.59 503.274 1354.59 494.59V345.456C1354.59 336.772 1347.55 329.732 1338.87 329.732Z" fill="#F5EBDD"/>
<path d="M1140.68 436.04C1144.86 436.04 1148.85 437.697 1151.8 440.645C1154.75 443.594 1156.41 447.594 1156.41 451.764V600.898C1156.41 605.068 1154.75 609.067 1151.8 612.016C1148.85 614.965 1144.86 616.622 1140.68 616.622H947.198C943.028 616.622 939.028 614.965 936.079 612.016C933.13 609.067 931.474 605.068 931.474 600.898V451.764C931.474 447.594 933.13 443.594 936.079 440.645C939.028 437.697 943.028 436.04 947.198 436.04H1140.68ZM1140.68 434.632H947.198C942.656 434.636 938.301 436.443 935.089 439.655C931.877 442.867 930.07 447.222 930.066 451.764V600.898C930.07 605.44 931.877 609.795 935.089 613.007C938.301 616.219 942.656 618.025 947.198 618.03H1140.68C1145.23 618.025 1149.58 616.219 1152.79 613.007C1156.01 609.795 1157.81 605.44 1157.82 600.898V451.764C1157.81 447.222 1156.01 442.867 1152.79 439.655C1149.58 436.443 1145.23 434.636 1140.68 434.632Z" fill="white"/>
<path d="M1140.68 436.04H947.198C938.514 436.04 931.474 443.08 931.474 451.764V600.898C931.474 609.582 938.514 616.622 947.198 616.622H1140.68C1149.37 616.622 1156.41 609.582 1156.41 600.898V451.764C1156.41 443.08 1149.37 436.04 1140.68 436.04Z" fill="#F5EBDD"/>
<path d="M1097.42 446.812C1097.42 446.667 1097.42 446.46 1097.42 446.245L1097.59 446.118L1097.43 446.083C1097.43 443.056 1097.17 434.065 1094.23 427.215C1091.62 421.129 1088.01 418.316 1085.51 419.39C1083.01 420.464 1082.56 425.022 1085.16 431.098C1086.61 434.484 1088.89 437.755 1091.09 440.451C1086.66 436.251 1080.61 431.045 1075.15 428.18C1067.76 424.308 1062.01 424.424 1060.41 427.458C1058.82 430.493 1062 435.298 1069.38 439.173C1074.19 441.697 1080.75 443.566 1086.32 444.837C1083.33 444.734 1080.34 444.987 1077.41 445.59C1070.95 447.041 1067.53 450.071 1068.12 452.726C1068.72 455.38 1073.11 456.658 1079.57 455.207C1086.77 453.592 1094.13 448.625 1096.66 446.798L1097.11 446.865C1097.29 447.037 1097.4 447.132 1097.4 447.132C1097.4 447.132 1097.4 447.051 1097.4 446.907H1097.5L1097.42 446.812Z" fill="#3EC1F3"/>
<path d="M1168.49 478.819L1168.38 478.714V478.932L1168.49 478.819Z" fill="#3EC1F3"/>
<path d="M1160.06 487.345L1159.97 470.382L1151.31 461.811L1151.48 496.005L1160.06 487.345Z" fill="#3EC1F3"/>
<path d="M1100.24 440.665L1100.52 497.723L1109.18 506.294L1108.81 432.006L1100.24 440.665Z" fill="#3EC1F3"/>
<path d="M1071.85 469.34L1092.11 489.391L1091.9 449.082L1071.85 469.34Z" fill="#3EC1F3"/>
<path d="M1143.15 504.418L1142.9 453.482L1134.23 444.907L1134.58 513.081L1143.15 504.418Z" fill="#3EC1F3"/>
<path d="M1125.82 436.579L1117.16 428.007L1117.6 514.627L1125.4 522.35L1126.25 521.495L1125.82 436.579Z" fill="#3EC1F3"/>
<path d="M1091.9 449.082L1092.11 489.391L1100.52 497.723L1100.24 440.666L1091.9 449.082Z" fill="#4756DF"/>
<path d="M1114.94 425.811L1108.81 432.006L1109.18 506.295L1117.6 514.627L1117.16 428.007L1114.94 425.811Z" fill="#4756DF"/>
<path d="M1134.58 513.081L1134.23 444.907L1125.82 436.579L1126.25 521.494L1134.58 513.081Z" fill="#4756DF"/>
<path d="M1151.48 496.005L1151.31 461.811L1142.9 453.482L1143.15 504.418L1151.48 496.005Z" fill="#4756DF"/>
<path d="M1168.38 478.932V478.714L1159.97 470.382L1160.06 487.345L1168.38 478.932Z" fill="#4756DF"/>
<path d="M1128.3 439.215L1085.29 482.664" stroke="black" stroke-width="4" stroke-linejoin="round"/>
<path d="M1117.17 423.559L1069.62 471.594L1082.54 484.38L1130.09 436.345L1117.17 423.559Z" fill="#4756DF"/>
<path d="M1104.31 501.162C1104.31 501.162 1108.89 486.025 1106.07 483.561C1102.67 480.587 1096.92 490.249 1092.28 501.866C1087.41 514.07 1073.27 548.683 1072.57 551.147C1072.57 551.147 1048.49 537.982 1037.72 533.195C1028.22 528.971 1016.64 527.436 1016.64 527.436L1015.17 518.597C1015.17 518.597 1022.04 521.061 1027.94 517.615C1033.83 514.169 1035.3 507.79 1033.34 497.969C1032.17 492.15 1032.22 484.945 1031.23 478.52C1027.31 479.182 1021.56 477.834 1021.56 477.834C1013.7 486.673 1005.37 488.637 1005.37 488.637C999.965 482.745 990.14 482.745 988.669 491.101C987.039 500.342 998.49 502.887 998.49 502.887C998.49 502.887 1000.82 516.298 995.892 529.675C989.045 548.261 961.444 553.193 950.13 545.163C929.714 559.596 947.775 603.446 964.915 624.014C978.995 640.91 1028.98 632.11 1028.98 632.11C1028.98 632.11 1034.61 636.334 1041.3 637.742C1053.27 661.327 1058.2 654.639 1058.2 654.639C1058.2 654.639 1062.42 659.215 1065.59 654.287C1071.93 654.639 1071.57 650.767 1065.94 637.39C1072.28 645.135 1078.48 645.159 1078.61 643.023C1078.97 637.39 1060.31 617.678 1048.69 612.75C1039.97 609.046 1035.67 607.821 1035.67 607.821L1033.91 579.308C1033.91 579.308 1071.26 599.824 1088.82 590.221C1111.35 577.9 1120.5 517.354 1120.5 517.354L1104.31 501.162Z" fill="#EAA58B"/>
<path d="M995.892 529.675C1000.82 516.299 998.469 502.88 998.469 502.88C998.469 502.88 987.018 500.335 988.648 491.095C990.119 482.745 999.944 482.745 1005.35 488.63C1005.35 488.63 1013.69 486.666 1021.54 477.827C1021.54 477.827 1027.28 479.175 1031.21 478.514C1030.52 474.089 1029.34 470.023 1026.94 467.02C1021.05 459.656 1004.84 454.742 992.073 464.074C979.305 473.406 980.284 488.63 980.777 494.523C980.777 494.523 958.695 489.116 946.948 505.731C932.516 526.148 950.116 545.157 950.116 545.157C961.444 553.193 989.045 548.261 995.892 529.675Z" fill="#30242A"/>
<path d="M1034.53 589.295L1033.91 579.309H1033.94L1030.99 530.675C1027.74 529.67 1024.44 528.839 1021.1 528.186L1019.48 561.708H992.02L981.59 544.759C977.867 546.596 973.88 547.839 969.773 548.444L985.458 587.32L991.316 601.837C991.316 601.837 1004.69 602.541 1016.66 604.302C1028.63 606.062 1035.67 607.822 1035.67 607.822L1034.53 589.295Z" fill="#FF7235"/>
<path d="M1104.84 502.035C1104.55 502.953 1104.25 503.848 1103.96 504.682C1103.96 504.682 1112.94 515.066 1107.3 528.443" stroke="#BB7259" stroke-width="4" stroke-miterlimit="10" stroke-linecap="round"/>
<path d="M1071.75 550.834L1068.05 560.3" stroke="#BB7259" stroke-width="4" stroke-miterlimit="10" stroke-linecap="round"/>
<path d="M1067.35 639.031C1065.86 635.655 1064.02 631.705 1062.39 628.822" stroke="#BB7259" stroke-width="4" stroke-miterlimit="10" stroke-linecap="round"/>
<path d="M1055.79 632.332C1060.01 639.77 1063.32 648.099 1065.4 653.949" stroke="#BB7259" stroke-width="4" stroke-miterlimit="10" stroke-linecap="round"/>
<path d="M1049.22 636.5C1052.39 642.315 1055.47 649.091 1057.76 654.417" stroke="#BB7259" stroke-width="4" stroke-miterlimit="10" stroke-linecap="round"/>
<path d="M1035.14 593.565L988.324 593.213" stroke="#724342" stroke-width="4" stroke-miterlimit="10" stroke-linecap="round"/>
<path d="M974.131 615.794C971.846 615.019 969.399 614.85 967.03 615.304C964.66 615.758 962.449 616.82 960.613 618.385C962.039 620.402 963.479 622.293 964.915 624.017C968.808 628.689 975.444 631.41 983.008 632.864C984.927 625.69 981.107 618.195 974.131 615.794Z" fill="#CA7358"/>
<path d="M1088.82 590.221C1091.88 588.549 1094.69 585.997 1097.27 582.808C1095.6 580.296 1093.15 578.405 1090.3 577.426C1082.99 574.916 1074.99 578.929 1072.43 586.388C1071.76 588.333 1071.51 590.398 1071.7 592.446C1078.09 593.199 1084.16 592.773 1088.82 590.221Z" fill="#CA7358"/>
<path d="M969.769 548.444C962.187 549.574 954.781 548.465 950.13 545.164C935.293 555.654 940.778 581.674 951.461 603.01L985.458 587.321L969.769 548.444Z" fill="#FFBE21"/>
<path d="M995.892 529.675C993.35 536.571 987.951 541.587 981.59 544.759L992.02 561.708H1019.48L1021.1 528.204C1018.4 527.672 1016.64 527.436 1016.64 527.436L1015.96 523.339H997.729C997.263 525.491 996.649 527.608 995.892 529.675Z" fill="#FFBE21"/>
<path d="M1037.72 533.195C1035.53 532.235 1033.28 531.4 1030.99 530.692L1033.94 579.326C1038.62 581.802 1043.42 584.022 1048.34 585.976L1062.77 545.868C1054.86 541.643 1044.02 536.011 1037.72 533.195Z" fill="#FFBE21"/>
<path d="M945.194 563.136C954.622 557.692 958.432 546.64 953.704 538.451C948.976 530.262 937.5 528.036 928.072 533.48C918.643 538.923 914.833 549.975 919.561 558.164C924.289 566.353 935.765 568.579 945.194 563.136Z" fill="#30242A"/>
<path d="M941.506 529.146C941.506 529.146 943.97 543.931 955.939 548.507" stroke="black" stroke-width="4" stroke-linecap="round" stroke-linejoin="round"/>
<path d="M1207.63 442.2L1209.04 452.761" stroke="#F5EBDC" stroke-width="4" stroke-miterlimit="10" stroke-linecap="round"/>
<path d="M1324.67 429.704C1324.67 429.704 1340.51 411.047 1322.91 395.207C1312.15 385.526 1299.23 388.223 1299.23 388.223C1299.72 382.33 1300.7 367.102 1287.94 357.774C1275.17 348.445 1258.96 353.356 1253.06 360.72C1247.17 368.084 1248.65 381.841 1246.68 391.662C1244.72 401.483 1246.19 407.854 1252.08 411.308C1257.98 414.761 1264.85 412.29 1264.85 412.29L1263.38 421.129C1263.38 421.129 1251.8 422.664 1242.3 426.888C1231.53 431.675 1207.45 444.84 1207.45 444.84C1206.75 442.376 1202.87 402.247 1201.11 389.222C1199.77 379.299 1195.13 367.046 1191.61 369.51C1188.2 371.9 1189.5 379.718 1189.5 379.718L1171.55 398.375C1171.55 398.375 1162.67 462.346 1183.87 479.69C1199.35 492.362 1239.84 471.945 1239.84 471.945L1234.56 510.315H1282.86C1282.86 510.315 1273.8 512.722 1254.97 521.227C1233.15 531.083 1220.48 558.54 1221.88 560.652C1223.29 562.764 1227.52 561.004 1233.15 553.964C1228.22 572.269 1233.15 570.861 1236.32 570.509C1239.54 575.141 1243.71 569.453 1243.71 569.453C1243.71 569.453 1249.34 574.733 1258.14 550.092C1262.14 548.207 1265.82 545.713 1269.05 542.7C1269.05 542.7 1325.02 539.18 1335.94 519.467C1346.85 499.754 1339.46 448.36 1324.67 429.704Z" fill="#A15842"/>
<path d="M1251.51 387.216C1252.31 387.216 1252.97 386.562 1252.97 385.755C1252.97 384.948 1252.31 384.294 1251.51 384.294C1250.7 384.294 1250.04 384.948 1250.04 385.755C1250.04 386.562 1250.7 387.216 1251.51 387.216Z" fill="#30242A"/>
<path d="M991.14 601.31L983.044 600.958" stroke="#BB7259" stroke-width="4" stroke-miterlimit="10" stroke-linecap="round"/>
<path d="M1015.04 519.421C1012.92 518.691 1010.85 517.788 1008.87 516.721" stroke="#BB7259" stroke-width="4" stroke-miterlimit="10" stroke-linecap="round"/>
<path d="M980.242 494.428C980.509 497.114 980.872 500.458 981.224 503.098" stroke="black" stroke-width="4" stroke-linecap="round" stroke-linejoin="round"/>
<path d="M1013.3 593.185C1013.3 593.185 1005.15 581.642 1008.93 580.125C1011.99 578.9 1012.87 587.88 1013.3 593.185Z" stroke="#724342" stroke-width="4" stroke-linecap="round" stroke-linejoin="round"/>
<path d="M1013.56 593.389C1013.56 593.389 1017.57 584.131 1020.09 585.613C1022.12 586.81 1016.76 590.971 1013.56 593.389Z" stroke="#724342" stroke-width="4" stroke-linecap="round" stroke-linejoin="round"/>
<path d="M1017.44 527.683L1018.07 531.435" stroke="#BB7259" stroke-width="4" stroke-miterlimit="10" stroke-linecap="round"/>
<path d="M999.919 494.984L995.536 492.548" stroke="#BB7259" stroke-width="4" stroke-miterlimit="10" stroke-linecap="round"/>
<path d="M1020.84 503.221C1021.09 507.84 1025.83 508.223 1027 504.981L1020.84 503.221Z" stroke="#BB7259" stroke-width="4" stroke-linecap="round" stroke-linejoin="round"/>
<path d="M1018.01 495.107C1018.81 495.107 1019.47 494.453 1019.47 493.646C1019.47 492.84 1018.81 492.186 1018.01 492.186C1017.2 492.186 1016.54 492.84 1016.54 493.646C1016.54 494.453 1017.2 495.107 1018.01 495.107Z" fill="#724342"/>
<path d="M1028.87 492.467C1029.68 492.467 1030.33 491.813 1030.33 491.006C1030.33 490.199 1029.68 489.545 1028.87 489.545C1028.06 489.545 1027.41 490.199 1027.41 491.006C1027.41 491.813 1028.06 492.467 1028.87 492.467Z" fill="#724342"/>
<path d="M1025.13 495.432C1025.48 496.364 1025.81 497.389 1025.71 497.773C1025.56 498.233 1025.26 498.629 1024.85 498.895" stroke="#BB7259" stroke-width="4" stroke-miterlimit="10" stroke-linecap="round"/>
<path d="M1012.21 456.358L1014.08 458.403L1015.31 459.762C1016.09 462.508 1010.38 466.883 1002.44 469.594C994.498 472.304 987.303 472.329 986.247 469.675L986.395 467.844L986.62 465.088C989.601 465.792 994.776 465.225 1000.31 463.328C1005.85 461.43 1010.29 458.752 1012.21 456.358Z" fill="#FFB494"/>
<path d="M998.166 457.069C1002.32 455.661 1005.86 453.781 1008.18 451.922L1012.21 456.358C1010.29 458.751 1005.84 461.448 1000.3 463.338C994.762 465.228 989.591 465.802 986.609 465.098L987.092 459.114C990.066 459.167 994.012 458.484 998.166 457.069Z" fill="#FF7235"/>
<path d="M1003.87 447.178L1008.18 451.923C1005.86 453.781 1002.32 455.654 998.166 457.069C994.012 458.484 990.07 459.181 987.092 459.118L987.606 452.722C993.354 452.028 998.893 450.139 1003.87 447.178Z" fill="#FFB494"/>
<path d="M993.889 444.53C995.768 443.894 997.6 443.126 999.37 442.231L1003.87 447.177C998.893 450.139 993.354 452.027 987.606 452.721L988.148 446.061C990.095 445.686 992.013 445.174 993.889 444.53Z" fill="#FF7235"/>
<path d="M988.148 446.062L989.348 431.207L999.373 442.232C997.603 443.127 995.772 443.895 993.893 444.531C992.016 445.175 990.096 445.686 988.148 446.062Z" fill="#FFB494"/>
<path d="M988.5 434.15C991.494 434.15 993.921 431.723 993.921 428.729C993.921 425.735 991.494 423.308 988.5 423.308C985.506 423.308 983.079 425.735 983.079 428.729C983.079 431.723 985.506 434.15 988.5 434.15Z" fill="#FF7235"/>
<path d="M997.124 508.906C999.554 508.906 1001.52 506.936 1001.52 504.506C1001.52 502.075 999.554 500.105 997.124 500.105C994.694 500.105 992.724 502.075 992.724 504.506C992.724 506.936 994.694 508.906 997.124 508.906Z" fill="#F4E6D8"/>
<path d="M1272.97 527.511L1273.88 529.535L1279.3 541.683C1295.98 539.62 1327.97 533.861 1335.94 519.467C1346.85 499.754 1339.46 448.361 1324.67 429.704C1312.35 443.253 1293.3 439.56 1285.66 428.296C1284.25 428.646 1282.82 428.881 1281.37 429C1279.12 429.208 1276.85 429.119 1274.61 428.733C1271.94 428.286 1269.41 427.219 1267.22 425.617C1264.44 423.523 1263.42 421.256 1263.42 421.256L1262.95 421.189C1260.79 421.509 1250.73 423.139 1242.3 426.888C1231.53 431.675 1207.45 444.841 1207.45 444.841C1207.13 443.735 1206.18 435.03 1205.06 424.6L1191.39 429.88L1189.91 430.454L1182.84 433.193L1169.98 438.17C1170.9 454.743 1174.36 471.91 1183.87 479.69C1199.35 492.362 1239.84 471.946 1239.84 471.946L1234.56 510.315H1282.86C1282.86 510.315 1277.91 511.635 1267.72 515.753L1270.07 521.002L1272.97 527.511Z" fill="#FFB494"/>
<path d="M1206.39 464.201C1202.1 464.201 1197.98 465.907 1194.95 468.943C1191.91 471.98 1190.2 476.099 1190.2 480.393C1190.2 481.235 1190.27 482.075 1190.4 482.907C1199.63 485.371 1212.31 482.477 1222.53 479.034C1222.19 474.99 1220.34 471.221 1217.35 468.474C1214.36 465.726 1210.45 464.201 1206.39 464.201Z" fill="#FF7235"/>
<path d="M1190.55 434.984C1190.55 433.454 1190.34 431.933 1189.91 430.464L1182.84 433.203L1169.98 438.18C1170.22 442.429 1170.62 446.716 1171.25 450.874C1173.6 451.333 1176.01 451.267 1178.33 450.681C1180.65 450.095 1182.81 449.004 1184.65 447.485C1186.5 445.966 1187.98 444.057 1189 441.896C1190.03 439.734 1190.55 437.374 1190.55 434.984Z" fill="#FF7235"/>
<path d="M1237.37 446.248C1240.07 446.247 1242.73 445.572 1245.1 444.283C1247.47 442.995 1249.48 441.135 1250.95 438.872C1252.42 436.608 1253.3 434.014 1253.51 431.324C1253.72 428.634 1253.25 425.935 1252.16 423.47C1248.79 424.359 1245.49 425.502 1242.3 426.888C1237.34 429.091 1229.57 433.069 1222.62 436.723C1223.9 439.562 1225.97 441.971 1228.59 443.66C1231.21 445.35 1234.26 446.248 1237.37 446.248Z" fill="#FF7235"/>
<path d="M1276.8 483.21C1285.74 483.21 1292.99 475.96 1292.99 467.017C1292.99 458.074 1285.74 450.825 1276.8 450.825C1267.85 450.825 1260.6 458.074 1260.6 467.017C1260.6 475.96 1267.85 483.21 1276.8 483.21Z" fill="#FF7235"/>
<path d="M1245.12 492.714C1242.13 492.713 1239.21 493.541 1236.67 495.104L1234.56 510.314H1261.24C1261.28 509.85 1261.31 509.382 1261.31 508.906C1261.31 504.612 1259.6 500.493 1256.57 497.457C1253.53 494.42 1249.41 492.714 1245.12 492.714Z" fill="#FF7235"/>
<path d="M1303.23 438.286C1303.23 438.592 1303.2 438.898 1303.2 439.208C1303.2 442.8 1304.4 446.289 1306.6 449.127C1308.8 451.965 1311.88 453.99 1315.36 454.885C1318.84 455.779 1322.52 455.491 1325.81 454.066C1329.11 452.642 1331.84 450.161 1333.57 447.016C1331.08 440.035 1328.07 433.991 1324.67 429.704C1318.46 436.536 1310.53 438.983 1303.23 438.286Z" fill="#FF7235"/>
<path d="M1318.33 506.794C1318.34 510.896 1319.89 514.844 1322.69 517.841C1325.49 520.839 1329.32 522.663 1333.41 522.945C1334.39 521.887 1335.23 520.72 1335.94 519.467C1339.53 512.983 1341.13 503.067 1341.15 492.01C1338.68 490.905 1335.98 490.435 1333.28 490.642C1330.59 490.85 1327.99 491.728 1325.72 493.198C1323.45 494.668 1321.59 496.682 1320.3 499.057C1319.01 501.432 1318.33 504.092 1318.33 506.794Z" fill="#FF7235"/>
<path d="M1284.19 522.986C1280 522.982 1275.98 524.604 1272.97 527.51L1273.88 529.534L1279.3 541.682C1286.37 540.823 1293.39 539.608 1300.34 538.042C1300.05 533.955 1298.22 530.13 1295.23 527.336C1292.23 524.542 1288.29 522.988 1284.19 522.986Z" fill="#FF7235"/>
<path d="M1311.47 500.282C1302.01 503.507 1289.25 507.428 1281.37 509.963" stroke="#F5EBDC" stroke-width="4" stroke-miterlimit="10" stroke-linecap="round"/>
<path d="M1301.44 466.066L1304.78 502.394" stroke="#F5EBDC" stroke-width="4" stroke-miterlimit="10" stroke-linecap="round"/>
<path d="M1232.2 554.886C1233.36 551.32 1235.82 543.995 1237.98 539.31" stroke="#30242A" stroke-width="4" stroke-miterlimit="10" stroke-linecap="round"/>
<path d="M1244.85 542.256C1239.95 552.816 1237.07 564.855 1236 569.847" stroke="#30242A" stroke-width="4" stroke-miterlimit="10" stroke-linecap="round"/>
<path d="M1251.73 545.691C1248.56 552.999 1245.79 562.975 1244.23 569.114" stroke="#30242A" stroke-width="4" stroke-miterlimit="10" stroke-linecap="round"/>
<path d="M1240.97 459.431L1239.06 472.209" stroke="#F5EBDC" stroke-width="4" stroke-miterlimit="10" stroke-linecap="round"/>
<path d="M1322.91 395.207C1312.15 385.526 1299.23 388.223 1299.23 388.223C1299.72 382.33 1300.7 367.102 1287.94 357.774C1275.17 348.445 1258.96 353.356 1253.06 360.72C1250.66 363.723 1249.48 367.788 1248.8 372.213C1252.72 372.875 1258.47 371.527 1258.47 371.527C1266.33 380.366 1274.66 382.33 1274.66 382.33C1280.06 376.437 1289.89 376.437 1291.36 384.794C1292.99 394.034 1281.54 396.58 1281.54 396.58C1281.54 396.58 1279.11 409.748 1283.12 423.023C1283.69 424.9 1284.54 426.68 1285.65 428.303C1293.29 439.567 1312.34 443.263 1324.66 429.711C1325.27 428.961 1325.83 428.175 1326.35 427.359C1329.92 421.85 1336.75 407.661 1322.91 395.207Z" fill="#30242A"/>
<path d="M1264.8 412.913C1267.08 412.247 1269.27 411.326 1271.34 410.167" stroke="#30242A" stroke-width="4" stroke-miterlimit="10" stroke-linecap="round"/>
<path d="M1299.78 388.121C1299.51 390.806 1299.15 394.151 1298.8 396.791" stroke="black" stroke-width="4" stroke-miterlimit="10" stroke-linecap="round"/>
<path d="M1280.1 388.677L1284.48 386.241" stroke="#30242A" stroke-width="4" stroke-miterlimit="10" stroke-linecap="round"/>
<path d="M1255.19 400.102C1256 400.606 1259.01 400.997 1260.24 398.677" stroke="#30242A" stroke-width="4" stroke-miterlimit="10" stroke-linecap="round"/>
<path d="M1263.13 389.152C1263.93 389.152 1264.59 388.498 1264.59 387.691C1264.59 386.885 1263.93 386.23 1263.13 386.23C1262.32 386.23 1261.66 386.885 1261.66 387.691C1261.66 388.498 1262.32 389.152 1263.13 389.152Z" fill="#30242A"/>
<path d="M1255.01 391.25C1254.79 392.222 1254.6 393.282 1254.75 393.644C1254.96 394.081 1255.32 394.434 1255.75 394.644" stroke="#30242A" stroke-width="4" stroke-miterlimit="10" stroke-linecap="round"/>
<path d="M1254.43 387.121C1255.31 383.333 1253.26 379.622 1249.85 378.832C1246.44 378.041 1242.96 380.471 1242.09 384.259C1241.21 388.047 1243.26 391.758 1246.67 392.548C1250.08 393.339 1253.55 390.909 1254.43 387.121Z" stroke="black" stroke-width="4" stroke-miterlimit="10" stroke-linecap="round"/>
<path d="M1269.92 389.583C1270.8 385.795 1268.75 382.084 1265.34 381.294C1261.93 380.504 1258.45 382.934 1257.58 386.722C1256.7 390.509 1258.75 394.221 1262.16 395.011C1265.57 395.801 1269.04 393.371 1269.92 389.583Z" stroke="black" stroke-width="4" stroke-miterlimit="10" stroke-linecap="round"/>
<path d="M1254.8 386.582L1257.26 386.934" stroke="black" stroke-width="4" stroke-miterlimit="10" stroke-linecap="round"/>
<path d="M1185.1 381.654C1185.1 381.654 1191.79 387.286 1192.49 388.694C1192.49 388.694 1181.58 399.958 1190.03 413.687" stroke="#30242A" stroke-width="4" stroke-miterlimit="10" stroke-linecap="round"/>
<path d="M1220.94 345.188C1221.75 343.866 1221.33 342.139 1220.01 341.33C1218.69 340.521 1216.96 340.937 1216.15 342.259L1162.83 429.419C1162.02 430.741 1162.44 432.469 1163.76 433.277C1165.08 434.086 1166.81 433.67 1167.62 432.348L1220.94 345.188Z" fill="#30242A"/>
<path d="M1225.79 322.541L1231.85 317.69C1232.34 317.293 1232.95 317.058 1233.58 317.015C1234.21 316.973 1234.84 317.125 1235.39 317.452C1235.93 317.779 1236.36 318.265 1236.62 318.844C1236.87 319.422 1236.95 320.067 1236.83 320.689L1235.38 328.324C1235.26 328.926 1235.33 329.548 1235.57 330.112C1235.81 330.675 1236.21 331.156 1236.72 331.492L1243.2 335.759C1243.73 336.106 1244.14 336.608 1244.38 337.196C1244.61 337.785 1244.66 338.431 1244.52 339.049C1244.38 339.666 1244.05 340.225 1243.58 340.649C1243.11 341.074 1242.52 341.344 1241.89 341.423L1234.2 342.405C1233.6 342.482 1233.02 342.737 1232.56 343.139C1232.1 343.54 1231.76 344.07 1231.6 344.661L1229.55 352.145C1229.38 352.755 1229.03 353.3 1228.54 353.705C1228.06 354.11 1227.46 354.356 1226.83 354.41C1226.2 354.465 1225.56 354.325 1225.01 354.009C1224.47 353.694 1224.03 353.217 1223.76 352.645L1220.45 345.604C1220.19 345.053 1219.77 344.591 1219.24 344.278C1218.72 343.965 1218.11 343.814 1217.5 343.844L1209.76 344.196C1209.12 344.236 1208.49 344.078 1207.94 343.744C1207.4 343.41 1206.97 342.916 1206.72 342.329C1206.47 341.743 1206.4 341.093 1206.53 340.468C1206.66 339.843 1206.98 339.274 1207.45 338.839L1213.11 333.523C1213.55 333.104 1213.87 332.561 1214.01 331.964C1214.14 331.367 1214.1 330.742 1213.89 330.169L1211.15 322.907C1210.92 322.313 1210.89 321.665 1211.04 321.049C1211.2 320.434 1211.54 319.881 1212.02 319.465C1212.5 319.049 1213.09 318.791 1213.72 318.725C1214.36 318.658 1214.99 318.787 1215.55 319.094L1222.35 322.836C1222.89 323.132 1223.5 323.262 1224.11 323.209C1224.73 323.157 1225.31 322.924 1225.79 322.541Z" fill="#3EC1F3"/>
<path d="M1189.5 379.718C1187.03 377.606 1182.3 376.236 1179.99 377.606C1176.1 379.918 1177.06 384.41 1177.06 384.41C1177.06 384.41 1170.72 383.424 1170.8 389.915C1170.8 389.915 1165.7 392.147 1167.93 397.248C1167.93 397.248 1163.52 398.364 1165.61 403.799C1167.32 408.231 1171.26 410.55 1173.66 411.751C1175.77 412.807 1179.01 411.283 1177.88 407.175C1177.88 407.175 1180.35 407.879 1181.75 406.471C1183.7 404.527 1182.81 400.838 1182.81 400.838C1182.81 400.838 1185.27 401.542 1187.03 400.134C1189.18 398.417 1188.09 395.206 1188.09 395.206C1188.88 395.1 1189.62 394.782 1190.24 394.286C1190.86 393.79 1191.33 393.135 1191.61 392.39C1193.02 388.87 1187.74 384.646 1187.74 384.646L1189.5 379.718Z" fill="#A15842"/>
<path d="M1167.67 397.449C1170.77 401.21 1174.19 404.7 1177.88 407.879" stroke="#30242A" stroke-width="4" stroke-miterlimit="10" stroke-linecap="round"/>
<path d="M1170.84 389.884C1174.47 394.322 1178.61 398.315 1183.18 401.778" stroke="#30242A" stroke-width="4" stroke-miterlimit="10" stroke-linecap="round"/>
<path d="M1176.47 384.706C1179.8 389.077 1183.8 392.888 1188.33 395.995" stroke="#30242A" stroke-width="4" stroke-miterlimit="10" stroke-linecap="round"/>
<path d="M1185.1 381.654C1185.1 381.654 1188.4 384.431 1190.6 386.582" stroke="#30242A" stroke-width="4" stroke-miterlimit="10" stroke-linecap="round"/>
<path d="M1267.8 350.05L1265.94 352.095L1264.71 353.454C1263.92 356.2 1269.64 360.575 1277.58 363.286C1285.53 365.996 1292.72 366.021 1293.77 363.367L1293.63 361.536L1293.41 358.78C1290.42 359.484 1285.25 358.917 1279.71 357.02C1274.17 355.123 1269.73 352.444 1267.8 350.05Z" fill="#FFBE21"/>
<path d="M1281.86 350.761C1277.7 349.353 1274.16 347.473 1271.84 345.615L1267.8 350.05C1269.73 352.444 1274.18 355.14 1279.72 357.03C1285.25 358.921 1290.43 359.495 1293.41 358.791L1292.93 352.806C1289.96 352.859 1286.01 352.176 1281.86 350.761Z" fill="#FF7235"/>
<path d="M1276.15 340.87L1271.84 345.615C1274.16 347.473 1277.7 349.346 1281.86 350.761C1286.01 352.176 1289.95 352.873 1292.93 352.81L1292.41 346.414C1286.67 345.72 1281.13 343.831 1276.15 340.87Z" fill="#FFBE21"/>
<path d="M1286.13 338.223C1284.25 337.587 1282.42 336.819 1280.65 335.924L1276.15 340.852C1281.13 343.814 1286.67 345.702 1292.41 346.397L1291.87 339.737C1289.93 339.366 1288.01 338.861 1286.13 338.223Z" fill="#FF7235"/>
<path d="M1291.87 339.754L1290.67 324.899L1280.65 335.924C1282.42 336.819 1284.25 337.587 1286.13 338.223C1288.01 338.867 1289.93 339.378 1291.87 339.754Z" fill="#FFBE21"/>
<path d="M1291.52 327.842C1294.51 327.842 1296.94 325.415 1296.94 322.421C1296.94 319.427 1294.51 317 1291.52 317C1288.52 317 1286.1 319.427 1286.1 322.421C1286.1 325.415 1288.52 327.842 1291.52 327.842Z" fill="#FF7235"/>
<path d="M500.211 456H306.724C298.04 456 291 463.04 291 471.724V620.858C291 629.542 298.04 636.582 306.724 636.582H500.211C508.896 636.582 515.936 629.542 515.936 620.858V471.724C515.936 463.04 508.896 456 500.211 456Z" fill="#F5EBDD"/>
<path d="M499.075 457.39C503.195 457.39 507.146 459.025 510.059 461.935C512.972 464.845 514.609 468.793 514.609 472.908V620.092C514.609 624.207 512.972 628.155 510.059 631.065C507.146 633.975 503.195 635.61 499.075 635.61H307.925C303.805 635.61 299.854 633.975 296.941 631.065C294.028 628.155 292.391 624.207 292.391 620.092V472.908C292.391 468.793 294.028 464.845 296.941 461.935C299.854 459.025 303.805 457.39 307.925 457.39H499.075ZM499.075 456H307.925C303.438 456.005 299.136 457.787 295.962 460.957C292.789 464.127 291.005 468.425 291 472.908V620.092C291.005 624.575 292.789 628.873 295.962 632.043C299.136 635.213 303.438 636.995 307.925 637H499.075C503.562 636.995 507.864 635.213 511.038 632.043C514.211 628.873 515.995 624.575 516 620.092V472.908C515.995 468.425 514.211 464.127 511.038 460.957C507.864 457.787 503.562 456.005 499.075 456Z" fill="white"/>
<path d="M444.271 531.456C444.271 531.456 436.53 531.879 430.758 528.667C425.29 525.623 424.409 520.856 426.316 511.422C426.316 511.422 422.898 509.393 423.24 507.364C423.462 506.028 427.341 504.659 427.341 504.659C427.826 502.082 428.441 498.187 429.439 494.204C431.936 494.689 434.472 494.947 437.016 494.975C444.644 503.465 452.972 503.983 452.972 503.983C454.178 502.2 455.814 500.742 457.733 499.742L469.11 504.229C469.218 504.593 469.307 504.962 469.376 505.335C470.958 514.211 459.807 517.508 459.807 517.508C462.056 526.009 469.376 529.343 474.871 530.652L474.407 534.875H443.697L444.271 531.456Z" fill="#EAA58B"/>
<path d="M370.716 598.784C344.06 591.006 342.351 528.789 342.351 528.789L356.257 511.084C356.257 511.084 353.629 498.356 356.363 495.989C359.664 493.132 363.823 502.076 368.324 513.234C373.054 524.958 381.888 559.438 382.571 561.805C382.571 561.805 389.201 558.721 397.058 555.137L398.172 558.762L408.309 592.572C397.195 597.073 381.444 601.915 370.716 598.784Z" fill="#EAA58B"/>
<path d="M459.807 517.508C459.807 517.508 470.958 514.211 469.376 505.335C469.307 504.962 469.218 504.593 469.11 504.229L477.397 507.486C477.397 507.719 477.359 507.939 477.342 508.162L474.871 530.652C469.366 529.343 462.056 526.009 459.807 517.508Z" fill="#A15842"/>
<path d="M452.972 503.983C452.972 503.983 444.644 503.465 437.016 494.975C434.472 494.948 431.936 494.689 429.439 494.204C429.863 492.513 430.359 490.806 430.946 489.172L457.733 499.743C455.814 500.743 454.178 502.2 452.972 503.983Z" fill="#A15842"/>
<path d="M469.11 504.23L457.733 499.743C462.432 497.383 467.589 499.104 469.11 504.23Z" fill="#30242A"/>
<path d="M457.733 499.743L430.946 489.172C431.879 486.572 433.041 484.168 434.518 482.342C440.239 475.265 454.284 470.128 466.683 479.092C478.621 487.725 477.893 501.443 477.397 507.496L469.11 504.226C467.589 499.103 462.432 497.382 457.733 499.743Z" fill="#30242A"/>
<path d="M425.8 549.754L426.613 542.795C436.025 540.079 442.826 539.948 442.826 539.948L443.68 534.875H474.407L473.925 539.271C476.97 539.262 480.009 539.519 483.009 540.039L478.709 549.754H425.8Z" fill="#4756DF"/>
<path d="M469.766 570.042H423.424L424.61 559.897H474.243L469.766 570.042Z" fill="#4756DF"/>
<path d="M465.285 580.186L460.808 590.33H421.124L421.531 586.489L421.497 586.506L422.238 580.186H465.285Z" fill="#4756DF"/>
<path d="M453.314 605.763C453.314 605.763 431.042 607.231 419.139 609.144L420.055 600.475H455.73L453.314 605.763Z" fill="#4756DF"/>
<path d="M424.61 559.898L425.8 549.753H478.72L474.243 559.898H424.61Z" fill="#FFB494"/>
<path d="M469.766 570.042L465.285 580.186H422.239L423.424 570.042H469.766Z" fill="#FFB494"/>
<path d="M459.807 591.561L455.73 600.474H420.055L421.124 590.33H460.388L459.807 591.561Z" fill="#FFB494"/>
<path d="M397.082 555.122C400.965 553.351 405.144 551.444 408.968 549.753C412.321 548.258 415.403 546.906 417.772 545.912C420.654 544.699 423.606 543.658 426.613 542.794L425.8 549.753L424.61 559.897L423.424 570.041L422.239 580.185L421.497 586.505C421.155 586.681 418.144 588.287 413.582 590.33C412.065 591.006 410.376 591.736 408.562 592.473L408.316 592.571L398.172 558.757L397.058 555.133L397.082 555.122Z" fill="#4756DF"/>
<path d="M455.73 600.474L459.807 591.561L460.388 590.33H460.809L459.913 592.359L493.217 604.343C487.605 615.4 481.255 624.888 476.553 629.432C460.149 645.325 417.191 635.424 417.191 635.424C417.191 635.424 412.304 639.238 405.811 640.591C394.191 663.246 387.8 655.374 387.8 655.374C387.8 655.374 383.699 659.77 380.623 655.036C374.472 655.374 374.814 651.655 380.282 638.806C374.13 646.245 368.006 646.363 367.876 644.311C367.534 638.9 382.913 620.979 397.028 615.136C405.517 611.623 419.139 609.144 419.139 609.144C431.042 607.247 453.314 605.763 453.314 605.763L455.73 600.474Z" fill="#EAA58B"/>
<path d="M483.009 540.039C489.348 541.114 497.478 543.667 502.174 549.754C504.262 552.459 505.674 555.84 505.933 560.114C506.709 572.426 500.612 589.749 493.206 604.343L459.913 592.359L483.009 540.039Z" fill="#4756DF"/>
<path d="M449.999 535.335L449.315 541.3" stroke="#30242A" stroke-width="4" stroke-linecap="round" stroke-linejoin="round"/>
<path d="M455.809 535.335L455.125 541.3" stroke="#30242A" stroke-width="4" stroke-linecap="round" stroke-linejoin="round"/>
<path d="M444.251 532.17C446.483 532.005 448.665 531.432 450.686 530.479" stroke="#A15842" stroke-width="4" stroke-miterlimit="10" stroke-linecap="round"/>
<path d="M379.544 638.637C380.859 635.749 382.366 632.618 383.723 630.244" stroke="#A15842" stroke-width="4" stroke-miterlimit="10" stroke-linecap="round"/>
<path d="M390.141 633.612C385.873 641.031 382.575 649.383 380.572 655.019" stroke="#A15842" stroke-width="4" stroke-miterlimit="10" stroke-linecap="round"/>
<path d="M397.714 638.007C394.639 643.59 391.143 650.326 388.62 655.344" stroke="#A15842" stroke-width="4" stroke-miterlimit="10" stroke-linecap="round"/>
<path d="M421.087 586.364L422.32 573.762" stroke="#30242A" stroke-width="4" stroke-linecap="round" stroke-linejoin="round"/>
<path d="M383.344 561.669L385.647 570.596" stroke="#A15842" stroke-width="4" stroke-miterlimit="10" stroke-linecap="round"/>
<path d="M474.065 538.595H469.824" stroke="#30242A" stroke-width="4" stroke-linecap="round" stroke-linejoin="round"/>
<path d="M442.098 539.981L441.455 543.788" stroke="#30242A" stroke-width="4" stroke-linecap="round" stroke-linejoin="round"/>
<path d="M434.757 481.541L477.817 497.772" stroke="#4756DF" stroke-width="4" stroke-miterlimit="10" stroke-linecap="round"/>
<path d="M453.895 604.961L463.225 604.41" stroke="#A15842" stroke-width="4" stroke-miterlimit="10" stroke-linecap="round"/>
<path d="M453.553 605.299L466.406 577.142" stroke="#30242A" stroke-width="4" stroke-linecap="round" stroke-linejoin="round"/>
<path d="M355.084 508.129C355.87 511.196 356.971 515.23 358.071 518.307C358.071 518.307 352.262 528.451 358.413 540.286" stroke="#A15842" stroke-width="4" stroke-miterlimit="10" stroke-linecap="round"/>
<path d="M341.356 608.17H356.185C356.286 608.17 356.384 608.131 356.456 608.059C356.527 607.988 356.568 607.892 356.568 607.792V597.039C356.568 596.938 356.527 596.842 356.456 596.771C356.384 596.7 356.286 596.66 356.185 596.66H341.356C339.815 596.66 338.338 597.266 337.248 598.344C336.159 599.422 335.546 600.884 335.546 602.409C335.545 603.165 335.694 603.913 335.985 604.612C336.276 605.311 336.704 605.947 337.243 606.482C337.783 607.017 338.424 607.442 339.13 607.732C339.836 608.021 340.592 608.17 341.356 608.17V608.17Z" stroke="#A15842" stroke-width="8" stroke-miterlimit="10"/>
<path d="M360.614 594.908C372.852 594.908 378.511 585.258 378.511 585.258L370.282 620.671H350.946L342.72 585.258C344.63 588.237 347.274 590.685 350.405 592.374C353.535 594.062 357.049 594.934 360.614 594.908Z" fill="#FF7235"/>
<path d="M360.614 594.908C357.049 594.934 353.535 594.062 350.405 592.374C347.274 590.685 344.63 588.237 342.72 585.258H378.511C378.511 585.258 372.852 594.908 360.614 594.908Z" fill="#A15842"/>
<path d="M457.521 510.192L462.647 506.472" stroke="#A15842" stroke-width="4" stroke-miterlimit="10" stroke-linecap="round"/>
<path d="M433.366 506.018C432.583 506.018 431.948 505.39 431.948 504.615C431.948 503.84 432.583 503.212 433.366 503.212C434.149 503.212 434.784 503.84 434.784 504.615C434.784 505.39 434.149 506.018 433.366 506.018Z" fill="#30242A"/>
<path d="M486.727 510.618L421.606 486.187" stroke="#30242A" stroke-width="4" stroke-linecap="round" stroke-linejoin="round"/>
<path d="M434.73 514.171C434.388 514.847 432.484 516.403 430.646 515.344" stroke="#A15842" stroke-width="4" stroke-miterlimit="10" stroke-linecap="round"/>
<path d="M343.451 540.644C344.278 539.819 344.914 538.425 344.743 536.228C344.743 536.228 347.819 537.918 349.869 536.228C352.562 534.006 351.578 530.817 351.578 530.817C351.578 530.817 354.654 531.832 356.021 529.465C357.504 526.898 355.679 523.378 355.679 523.378C355.679 523.378 358.136 523.716 358.755 521.349C359.541 518.353 357.897 515.628 356.168 513.657" stroke="#A15842" stroke-width="8" stroke-miterlimit="10" stroke-linecap="round"/>
<path d="M397.071 477.309L348.59 459.088C345.28 457.843 343.616 454.18 344.874 450.905L358.196 416.203C359.454 412.928 363.156 411.282 366.466 412.526L414.947 430.747C418.257 431.991 419.921 435.655 418.664 438.93L405.341 473.632C404.084 476.907 400.381 478.553 397.071 477.309Z" fill="#30242A"/>
<path d="M339.868 561.034C339.332 562.431 337.753 563.133 336.342 562.603C334.93 562.072 334.22 560.51 334.757 559.113L370.108 467.033C370.644 465.636 372.223 464.934 373.635 465.465C375.046 465.995 375.756 467.558 375.22 468.954L339.868 561.034Z" fill="#30242A"/>
<path d="M376.037 434.151C377.608 433.484 379.382 433.461 380.97 434.088C382.558 434.714 383.829 435.938 384.506 437.491L385.251 439.209L386.987 438.469C388.552 437.826 390.31 437.82 391.88 438.45C393.449 439.08 394.705 440.297 395.376 441.837C396.046 443.376 396.076 445.115 395.461 446.677C394.845 448.239 393.633 449.498 392.086 450.182L390.35 450.922L378.515 455.967L373.413 444.254L372.668 442.54C372.331 441.77 372.151 440.942 372.138 440.104C372.125 439.265 372.28 438.433 372.593 437.653C372.906 436.874 373.371 436.163 373.962 435.562C374.553 434.961 375.258 434.481 376.037 434.151Z" fill="#FFB494"/>
<path d="M346.694 507.527C343.513 509.417 344.196 513.079 344.196 513.079C344.196 513.079 337.795 512.21 337.983 518.685C337.983 518.685 332.881 521.005 335.222 526.053C335.222 526.053 331.712 526.959 333.465 532.508C335.174 537.919 338.67 541.33 340.984 541.638C342.207 541.8 345.085 540.624 344.743 536.228C344.743 536.228 347.819 537.919 349.869 536.228C352.562 534.006 351.578 530.818 351.578 530.818C351.578 530.818 354.654 531.832 356.021 529.465C357.504 526.899 355.679 523.379 355.679 523.379C355.679 523.379 358.136 523.717 358.755 521.35C360.067 516.355 354.623 512.115 353.287 510.867L354.312 508.162C354.312 508.162 349.869 505.64 346.694 507.527Z" fill="#EAA58B"/>
<path d="M356.872 524.599C352.993 522.34 347.115 518.175 343.813 513.19" stroke="#A15842" stroke-width="4" stroke-miterlimit="10" stroke-linecap="round"/>
<path d="M352.368 531.64C346.734 528.41 341.772 524.149 337.747 519.084" stroke="#A15842" stroke-width="4" stroke-miterlimit="10" stroke-linecap="round"/>
<path d="M344.535 536.658C341.801 534.629 338.041 530.909 334.87 526.632" stroke="#A15842" stroke-width="4" stroke-miterlimit="10" stroke-linecap="round"/>
<path d="M309.211 336H115.724C107.04 336 100 343.04 100 351.724V500.858C100 509.542 107.04 516.582 115.724 516.582H309.211C317.896 516.582 324.936 509.542 324.936 500.858V351.724C324.936 343.04 317.896 336 309.211 336Z" fill="#F5EBDD"/>
<path d="M308.999 336.397C313.138 336.397 317.106 338.041 320.033 340.968C322.959 343.894 324.603 347.863 324.603 352.002V499.998C324.603 504.137 322.959 508.106 320.033 511.032C317.106 513.959 313.138 515.603 308.999 515.603H117.001C112.862 515.603 108.894 513.959 105.967 511.032C103.041 508.106 101.397 504.137 101.397 499.998V352.002C101.397 347.863 103.041 343.894 105.967 340.968C108.894 338.041 112.862 336.397 117.001 336.397H308.999ZM308.999 335H117.001C112.493 335.005 108.172 336.797 104.984 339.985C101.797 343.172 100.005 347.494 100 352.002V499.998C100.005 504.506 101.797 508.828 104.984 512.015C108.172 515.203 112.493 516.995 117.001 517H308.999C313.507 516.995 317.828 515.203 321.016 512.015C324.203 508.828 325.995 504.506 326 499.998V352.002C325.995 347.494 324.203 343.172 321.016 339.985C317.828 336.797 313.507 335.005 308.999 335Z" fill="white"/>
<path d="M95.1589 411.671H263.3V421.815H95.1589V411.671Z" fill="#FFB494"/>
<path d="M194.942 402.146L191.191 412.31L232.602 427.272C233.964 427.764 235.468 427.701 236.783 427.096C238.098 426.491 239.116 425.394 239.614 424.046C240.111 422.698 240.047 421.21 239.436 419.909C238.824 418.608 237.715 417.6 236.353 417.108L194.942 402.146Z" fill="#30242A"/>
<path d="M227.621 413.954L223.869 424.118L232.601 427.272C233.963 427.765 235.467 427.701 236.782 427.096C238.097 426.491 239.116 425.394 239.613 424.046C240.11 422.698 240.046 421.21 239.435 419.909C238.823 418.608 237.714 417.601 236.352 417.108L227.621 413.954Z" fill="#30242A"/>
<path d="M186.953 416.858C180.347 416.858 174.992 411.559 174.992 405.023C174.992 398.487 180.347 393.188 186.953 393.188C193.559 393.188 198.915 398.487 198.915 405.023C198.915 411.559 193.559 416.858 186.953 416.858Z" fill="#4756DF"/>
<path d="M239.484 423.966C253.837 429.038 271.824 436.531 283.57 421.937C298.265 403.678 269.558 384.742 261.698 408.75C252.833 435.828 307.041 454.882 293.139 479.421C280.494 501.738 240.687 477.689 217.612 485.845C198.474 492.608 197.975 515.686 197.975 515.686" stroke="#30242A" stroke-width="4" stroke-miterlimit="10" stroke-linecap="round"/>
<path d="M200.76 404.232C201.443 400.175 204.177 397.131 205.886 396.729C209.963 395.775 212.215 399.434 212.215 399.434C212.215 399.434 215.442 396.509 219.953 400.431C219.953 400.431 225.12 398.835 227.352 403.427C227.352 403.427 229.648 402.569 232.198 407.269C234.272 411.1 235.957 416.838 233.565 418.427C232.539 419.104 229.464 418.765 228.438 416.398C228.438 416.398 227.516 418.089 225.704 417.751C221.945 417.075 221.603 414.031 221.603 414.031C221.603 414.031 221.285 415.178 219.211 415.384C215.848 415.722 214.085 412.341 214.085 412.341C214.085 412.341 212.81 413.183 210.326 412.341C207.007 411.215 206.149 406.302 206.149 406.302L200.76 404.232Z" fill="#A15842"/>
<path d="M71.3571 459.342C65.637 453.444 66.5629 443.381 73.4251 436.865C80.2874 430.35 90.4874 429.849 96.2074 435.747C101.928 441.644 101.002 451.707 94.1394 458.223C87.2772 464.739 77.0772 465.239 71.3571 459.342Z" fill="#30242A"/>
<path d="M101.31 449.543C101.31 449.543 89.3491 442.104 87.6404 428.578" stroke="black" stroke-width="4" stroke-linecap="round" stroke-linejoin="round"/>
<path d="M137.515 438.493C134.643 429.523 138.698 420.249 146.574 417.78C154.449 415.311 163.162 420.582 166.035 429.553C168.907 438.524 164.852 447.797 156.976 450.266C149.101 452.735 140.388 447.464 137.515 438.493Z" fill="#30242A"/>
<path d="M91.0202 433.386C91.3312 432.314 72.5144 443.784 76.3249 447.588C79.9202 451.159 89.455 438.803 91.0202 433.386Z" fill="#4756DF"/>
<path d="M90.87 434.053C91.4851 432.744 75.2622 416.354 72.5453 420.923C69.9343 425.319 90.2548 435.358 90.87 434.053Z" fill="#4756DF"/>
<path d="M109.512 436.355C113.955 435.002 123.524 434.326 128.992 433.65C140.612 427.563 137.536 411.671 137.536 411.671C136.852 411.333 125.729 409.334 127.263 400.739C128.63 392.962 137.881 392.962 142.96 398.453C142.96 398.453 150.181 395.44 152.231 385.634C152.231 385.634 158.328 386.327 162.556 385.222C163.475 389.242 163.704 393.648 164.534 398.145C164.534 398.145 168.977 398.483 169.319 400.174C169.661 401.96 166.147 404.07 166.147 404.07C168.54 412.665 168.198 420.456 162.826 423.506C158.041 426.211 152.231 425.196 152.231 425.196L152.915 433.312C158.899 433.535 164.798 434.794 170.344 437.031C181.687 441.603 208.278 459.01 208.278 459.01C206.228 452.248 197.817 430.918 194.608 417.419C193.241 411.671 191.874 406.261 195.292 405.923C199.031 405.551 204.519 417.081 204.519 417.081L227.758 425.535C241.459 443.872 257.491 485.385 236.644 495.868C217.847 505.335 175.812 482.342 175.812 482.342L179.571 516.156H111.221L95.8424 444.132C95.8424 444.132 95.7775 444.065 95.6613 443.933C100.466 439.821 106.252 437.346 109.512 436.355Z" fill="#A15842"/>
<path d="M118.398 429.714H152.611L152.915 433.312C155.58 433.387 158.233 433.694 160.843 434.232C161.715 434.404 162.638 434.607 163.598 434.847C165.895 435.421 168.149 436.151 170.344 437.032C170.826 437.224 171.342 437.448 171.879 437.684C172.87 438.131 173.929 438.645 175.088 439.216C182.798 443.088 193.399 449.566 200.531 454.054L191.27 472.377L186.622 481.575L184.144 486.474C179.059 484.107 175.812 482.342 175.812 482.342L179.571 516.156H111.221L95.8424 444.133C95.022 443.227 94.2628 442.269 93.5698 441.265V441.167L118.398 429.714Z" fill="#FFBE21"/>
<path d="M167.166 439.287L171.879 437.684C172.87 438.13 173.929 438.644 175.088 439.216L171.226 445.468L178.898 455.822L168.782 451.683L163.147 461.966L162.504 450.645L152.737 448.575L161.11 443.398L160.843 434.231C161.715 434.404 162.638 434.607 163.598 434.847L167.166 439.287Z" fill="#FF7235"/>
<path d="M184.247 478.136L175.88 476.902L175.788 474.433L180.118 472.475L176.543 461.939L186.089 468.15L192.09 461.388L191.222 472.36L191.27 472.377L186.622 481.575L184.247 478.136Z" fill="#FF7235"/>
<path d="M131.545 449.85L127.707 462.618L123.873 449.85L111.662 446.398L123.524 441.566V430.522L130.151 439.148L139.569 434.661L133.989 443.98L142.707 451.23L131.545 449.85Z" fill="#FF7235"/>
<path d="M143.165 513.373L150.348 502.86L144.18 493.656L154.521 497.22L159.866 488.331L160.42 499.151L171.735 500.422L161.664 505.376L164.992 516.156H163.229L155.266 509.572L143.165 513.373Z" fill="#FF7235"/>
<path d="M139.665 492.043L131.296 484.797L121.877 491.009L126.063 480.655L118.736 472.719L129.201 474.443L134.084 465.814L135.134 475.133L144.897 474.788L136.528 481L139.665 492.043Z" fill="#FF7235"/>
<path d="M152.231 385.634C150.181 395.44 142.96 398.453 142.96 398.453C137.881 392.972 128.647 392.972 127.263 400.739C125.729 409.334 136.853 411.333 137.536 411.671C137.536 411.671 140.612 427.563 128.992 433.65C123.524 434.326 113.955 435.003 109.512 436.355C106.252 437.346 100.466 439.821 95.6613 443.933C93.9526 442.026 80.9455 426.529 93.1084 411.333C101.553 400.776 115.432 402.585 115.432 402.585C114.97 397.101 114.065 382.939 126.05 374.259C138.035 365.579 153.294 370.148 158.834 377.002C160.813 379.446 161.876 382.229 162.556 385.222C158.328 386.327 152.231 385.634 152.231 385.634Z" fill="#30242A"/>
<path d="M205.151 416.817C205.637 417.926 206.136 419.184 206.57 420.463C206.57 420.463 214.43 422.153 216.545 427.394" stroke="#30242A" stroke-width="4" stroke-miterlimit="10" stroke-linecap="round"/>
<path d="M207.294 458.341L211.354 468.864" stroke="#30242A" stroke-width="4" stroke-linecap="round" stroke-linejoin="round"/>
<path d="M175.129 469.831L176.55 482.484" stroke="#724342" stroke-width="4" stroke-linecap="round" stroke-linejoin="round"/>
<path d="M153.598 426.211C150.456 425.722 147.39 424.833 144.477 423.567" stroke="#30242A" stroke-width="4" stroke-miterlimit="10" stroke-linecap="round"/>
<path d="M138.325 404.354L133.883 401.649" stroke="#30242A" stroke-width="4" stroke-miterlimit="10" stroke-linecap="round"/>
<path d="M114.912 402.443C115.165 404.948 115.507 408.083 115.838 410.558" stroke="black" stroke-width="4" stroke-miterlimit="10" stroke-linecap="round"/>
<path d="M139.962 408.466L141.206 415.945C141.261 416.274 141.23 416.611 141.115 416.924C141 417.237 140.806 417.516 140.551 417.733C140.296 417.951 139.989 418.1 139.659 418.167C139.329 418.233 138.988 418.214 138.667 418.113L132.01 415.999C131.689 415.897 131.4 415.716 131.171 415.472C130.942 415.228 130.78 414.929 130.7 414.605C130.621 414.282 130.627 413.943 130.718 413.622C130.81 413.301 130.982 413.009 131.22 412.773L136.617 407.397C136.872 407.139 137.195 406.957 137.55 406.87C137.904 406.784 138.276 406.797 138.623 406.908C138.971 407.019 139.28 407.223 139.517 407.499C139.753 407.774 139.908 408.108 139.962 408.466Z" fill="#F4E6D8"/>
<path d="M155.946 406.578C156.257 411.048 160.912 411.353 162.005 408.178L155.946 406.578Z" stroke="#30242A" stroke-width="4" stroke-linecap="round" stroke-linejoin="round"/>
<path d="M155.194 398.331C156.021 398.733 158.974 398.818 159.931 396.481" stroke="#30242A" stroke-width="4" stroke-linecap="round" stroke-linejoin="round"/>
<path d="M109.512 436.355L109.618 490.917C109.618 490.917 143.213 471.018 145.81 470.859C147.72 470.74 149.142 475.021 145.694 478.558C154.989 476.85 164.227 475.954 165.679 478.754C166.554 480.445 165.129 482.203 165.129 482.203C166.243 482.342 167.33 482.633 167.952 483.356C169.445 485.091 167.395 487.752 167.395 487.752C169.288 488.655 168.635 491.472 166.927 492.824C162.747 496.128 150.225 498.488 150.225 498.488C154.73 499.032 163.396 499.54 162.932 502.076C162.248 505.795 143.11 505.795 143.11 505.795C135.933 510.529 130.017 510.407 130.017 510.407C130.017 510.407 112.492 528.207 94.8171 532.386C49.3643 540.164 84.9064 455.967 94.4754 445.147C100.415 438.428 109.512 436.355 109.512 436.355Z" fill="#A15842"/>
<path d="M152.993 499.26C150.601 499.236 148.011 499.226 145.396 499.26" stroke="#30242A" stroke-width="4" stroke-linecap="round" stroke-linejoin="round"/>
<path d="M167.716 488.52C162.125 489.534 152.248 491.404 145.044 493.162" stroke="#30242A" stroke-width="4" stroke-linecap="round" stroke-linejoin="round"/>
<path d="M165.467 482.366C158.54 483.302 148.595 484.733 142.321 486.062" stroke="#30242A" stroke-width="4" stroke-linecap="round" stroke-linejoin="round"/>
<path d="M144.952 478.159C142.437 478.724 139.96 479.443 137.536 480.313" stroke="#30242A" stroke-width="4" stroke-linecap="round" stroke-linejoin="round"/>
<path d="M89.3697 460.113L90.0122 471.434L95.6476 461.161L105.763 465.3L98.0912 454.946L104 445.377L94.0312 448.758L92.8726 447.297C93.3636 446.546 93.9035 445.828 94.4891 445.147C100.429 438.428 109.526 436.355 109.526 436.355L109.605 476.898L106.577 479.836L98.2074 470.767L102.438 483.224L101.697 483.765L78.6353 478.862C80.8335 472.264 83.3959 465.79 86.311 459.47L89.3697 460.113Z" fill="#FFBE21"/>
<path d="M104 445.366L98.0911 454.936L105.763 465.289L95.6476 461.151L90.0121 471.433L89.3696 460.112L86.2939 459.467C88.7066 454.273 91.0169 450.019 92.8418 447.294L94.014 448.751L104 445.366Z" fill="#FF7235"/>
<path d="M102.425 483.225L98.1937 470.764L106.563 479.836L109.591 476.898L109.608 485.453L101.683 483.766L102.425 483.225Z" fill="#FF7235"/>
<path d="M110.302 469.337V489.656" stroke="#724342" stroke-width="4" stroke-linecap="round" stroke-linejoin="round"/>
<path d="M110.435 489.656C110.435 489.656 103.809 493.622 93.5561 499.709" stroke="#30242A" stroke-width="4" stroke-linecap="round" stroke-linejoin="round"/>
<path d="M228.086 403.722C229.016 407.134 229.843 411.938 229.142 416.869" stroke="#30242A" stroke-width="4" stroke-miterlimit="10" stroke-linecap="round"/>
<path d="M220.845 400.671C221.743 403.343 222.694 407.955 222.133 414.806" stroke="#30242A" stroke-width="4" stroke-miterlimit="10" stroke-linecap="round"/>
<path d="M212.96 399.373C213.938 402.21 215.247 406.663 214.69 412.35" stroke="#30242A" stroke-width="4" stroke-miterlimit="10" stroke-linecap="round"/>
<path d="M205.158 402.102C205.158 402.102 205.257 404.199 205.425 406.498" stroke="#30242A" stroke-width="4" stroke-miterlimit="10" stroke-linecap="round"/>
<defs>
<linearGradient id="paint0_linear_26_377" x1="94.3065" y1="292" x2="94.3065" y2="857.88" gradientUnits="userSpaceOnUse">
<stop stop-color="#FF7235" stop-opacity="0.4"/>
<stop offset="1" stop-color="white" stop-opacity="0.4"/>
</linearGradient>
<linearGradient id="paint1_linear_26_377" x1="1323.07" y1="476.339" x2="1323.07" y2="-220" gradientUnits="userSpaceOnUse">
<stop stop-color="#FF7235" stop-opacity="0.4"/>
<stop offset="1" stop-color="white" stop-opacity="0.4"/>
</linearGradient>
</defs>
</svg>
